<svg width="519" height="14" viewBox="0 0 519 14" fill="none" xmlns="http://www.w3.org/2000/svg">
<path d="M5.664 1.56424C6.368 1.56424 6.98 1.70424 7.5 1.98424C8.028 2.25624 8.432 2.64424 8.712 3.14824C9 3.65224 9.144 4.23624 9.144 4.90024C9.144 5.21224 9.116 5.51224 9.06 5.80024C8.916 6.62424 8.612 7.36024 8.148 8.00824C7.684 8.64824 7.108 9.14824 6.42 9.50824C5.732 9.86824 4.984 10.0482 4.176 10.0482C3.464 10.0482 2.844 9.90824 2.316 9.62824C1.796 9.34824 1.392 8.95624 1.104 8.45224C0.824 7.94024 0.684 7.34824 0.684 6.67624C0.684 6.44424 0.712 6.15224 0.768 5.80024C0.912 4.97624 1.216 4.24424 1.68 3.60424C2.144 2.96424 2.72 2.46424 3.408 2.10424C4.104 1.74424 4.856 1.56424 5.664 1.56424ZM5.604 1.94824C4.852 1.94824 4.164 2.11224 3.54 2.44024C2.924 2.76024 2.412 3.21224 2.004 3.79624C1.604 4.38024 1.336 5.04824 1.2 5.80024C1.152 6.09624 1.128 6.38024 1.128 6.65224C1.128 7.56424 1.4 8.29224 1.944 8.83624C2.496 9.38024 3.264 9.65224 4.248 9.65224C4.992 9.65224 5.672 9.49224 6.288 9.17224C6.904 8.84424 7.416 8.38824 7.824 7.80424C8.232 7.22024 8.5 6.55224 8.628 5.80024C8.676 5.49624 8.7 5.21224 8.7 4.94824C8.7 4.03624 8.428 3.30824 7.884 2.76424C7.34 2.22024 6.58 1.94824 5.604 1.94824ZM5.412 2.99224C4.932 2.99224 4.476 3.10424 4.044 3.32824C3.612 3.55224 3.244 3.87624 2.94 4.30024C2.636 4.72424 2.432 5.22024 2.328 5.78824C2.288 6.04424 2.268 6.25624 2.268 6.42424C2.268 7.10424 2.468 7.63624 2.868 8.02024C3.268 8.40424 3.784 8.59624 4.416 8.59624C5.008 8.59624 5.556 8.43624 6.06 8.11624C6.564 7.78824 6.94 7.34824 7.188 6.79624H6.408C6.216 7.18024 5.956 7.47224 5.628 7.67224C5.308 7.87224 4.944 7.97224 4.536 7.97224C4.088 7.97224 3.724 7.83224 3.444 7.55224C3.172 7.27224 3.036 6.87224 3.036 6.35224C3.036 6.16824 3.052 5.98424 3.084 5.80024C3.204 5.11224 3.472 4.58024 3.888 4.20424C4.304 3.82024 4.776 3.62824 5.304 3.62824C5.704 3.62824 6.032 3.73224 6.288 3.94024C6.552 4.14024 6.708 4.42824 6.756 4.80424H7.536C7.488 4.23624 7.272 3.79224 6.888 3.47224C6.504 3.15224 6.012 2.99224 5.412 2.99224ZM13.2098 9.34024C14.8818 8.24424 16.1978 7.26024 17.1578 6.38824C18.1178 5.50824 18.6698 4.65624 18.8138 3.83224C18.8458 3.62424 18.8618 3.46824 18.8618 3.36424C18.8618 2.96424 18.7418 2.64424 18.5018 2.40424C18.2698 2.16424 17.8898 2.04424 17.3618 2.04424C16.7538 2.04424 16.2498 2.23624 15.8498 2.62024C15.4498 2.99624 15.1778 3.49624 15.0338 4.12024H14.2178C14.4178 3.23224 14.8098 2.54424 15.3938 2.05624C15.9858 1.56824 16.6858 1.32424 17.4938 1.32424C18.1738 1.32424 18.7098 1.49224 19.1018 1.82824C19.5018 2.15624 19.7018 2.62824 19.7018 3.24424C19.7018 3.44424 19.6858 3.62824 19.6538 3.79624C19.4858 4.74824 18.9218 5.67624 17.9618 6.58024C17.0018 7.47624 15.8578 8.36024 14.5298 9.23224H18.9578L18.8378 9.94024H13.1018L13.2098 9.34024ZM20.905 5.68024C21.145 4.31224 21.541 3.24824 22.093 2.48824C22.653 1.72824 23.481 1.34824 24.577 1.34824C25.409 1.34824 26.005 1.57624 26.365 2.03224C26.733 2.48824 26.917 3.12824 26.917 3.95224C26.917 4.42424 26.857 5.00024 26.737 5.68024C26.497 7.04824 26.097 8.11624 25.537 8.88424C24.977 9.64424 24.149 10.0242 23.053 10.0242C22.221 10.0242 21.625 9.80024 21.265 9.35224C20.905 8.89624 20.725 8.25624 20.725 7.43224C20.725 6.96024 20.785 6.37624 20.905 5.68024ZM25.909 5.68024C26.029 5.01624 26.089 4.46424 26.089 4.02424C26.089 3.41624 25.961 2.94824 25.705 2.62024C25.457 2.28424 25.037 2.11624 24.445 2.11624C23.869 2.11624 23.401 2.27224 23.041 2.58424C22.681 2.88824 22.405 3.29624 22.213 3.80824C22.021 4.32024 21.861 4.94424 21.733 5.68024C21.605 6.40824 21.541 6.97224 21.541 7.37224C21.541 7.97224 21.665 8.43624 21.913 8.76424C22.161 9.09224 22.585 9.25624 23.185 9.25624C23.761 9.25624 24.229 9.10424 24.589 8.80024C24.949 8.48824 25.225 8.07624 25.417 7.56424C25.609 7.05224 25.773 6.42424 25.909 5.68024ZM27.4716 9.34024C29.1436 8.24424 30.4596 7.26024 31.4196 6.38824C32.3796 5.50824 32.9316 4.65624 33.0756 3.83224C33.1076 3.62424 33.1236 3.46824 33.1236 3.36424C33.1236 2.96424 33.0036 2.64424 32.7636 2.40424C32.5316 2.16424 32.1516 2.04424 31.6236 2.04424C31.0156 2.04424 30.5116 2.23624 30.1116 2.62024C29.7116 2.99624 29.4396 3.49624 29.2956 4.12024H28.4796C28.6796 3.23224 29.0716 2.54424 29.6556 2.05624C30.2476 1.56824 30.9476 1.32424 31.7556 1.32424C32.4356 1.32424 32.9716 1.49224 33.3636 1.82824C33.7636 2.15624 33.9636 2.62824 33.9636 3.24424C33.9636 3.44424 33.9476 3.62824 33.9156 3.79624C33.7476 4.74824 33.1836 5.67624 32.2236 6.58024C31.2636 7.47624 30.1196 8.36024 28.7916 9.23224H33.2196L33.0996 9.94024H27.3636L27.4716 9.34024ZM34.3388 9.34024C36.0108 8.24424 37.3268 7.26024 38.2868 6.38824C39.2468 5.50824 39.7988 4.65624 39.9428 3.83224C39.9748 3.62424 39.9908 3.46824 39.9908 3.36424C39.9908 2.96424 39.8708 2.64424 39.6308 2.40424C39.3988 2.16424 39.0188 2.04424 38.4908 2.04424C37.8828 2.04424 37.3788 2.23624 36.9788 2.62024C36.5788 2.99624 36.3068 3.49624 36.1628 4.12024H35.3468C35.5468 3.23224 35.9388 2.54424 36.5228 2.05624C37.1148 1.56824 37.8148 1.32424 38.6228 1.32424C39.3028 1.32424 39.8388 1.49224 40.2308 1.82824C40.6308 2.15624 40.8307 2.62824 40.8307 3.24424C40.8307 3.44424 40.8148 3.62824 40.7828 3.79624C40.6148 4.74824 40.0508 5.67624 39.0908 6.58024C38.1308 7.47624 36.9868 8.36024 35.6588 9.23224H40.0868L39.9668 9.94024H34.2308L34.3388 9.34024ZM51.381 1.61224L51.261 2.28424H48.921L47.565 10.0002H46.725L48.081 2.28424H45.753L45.873 1.61224H51.381ZM54.0994 10.0962C53.5554 10.0962 53.0754 9.98824 52.6594 9.77224C52.2434 9.54824 51.9194 9.23624 51.6874 8.83624C51.4634 8.42824 51.3514 7.95224 51.3514 7.40824C51.3514 6.67224 51.5194 5.99624 51.8554 5.38024C52.1914 4.75624 52.6594 4.26424 53.2594 3.90424C53.8594 3.53624 54.5274 3.35224 55.2634 3.35224C55.8074 3.35224 56.2874 3.46424 56.7034 3.68824C57.1194 3.90424 57.4434 4.21624 57.6754 4.62424C57.9074 5.02424 58.0234 5.49624 58.0234 6.04024C58.0234 6.78424 57.8514 7.46424 57.5074 8.08024C57.1634 8.69624 56.6914 9.18824 56.0914 9.55624C55.4994 9.91624 54.8354 10.0962 54.0994 10.0962ZM54.1954 9.38824C54.7634 9.38824 55.2714 9.23624 55.7194 8.93224C56.1754 8.62824 56.5274 8.22424 56.7754 7.72024C57.0314 7.21624 57.1594 6.67224 57.1594 6.08824C57.1594 5.43224 56.9674 4.93224 56.5834 4.58824C56.2074 4.24424 55.7274 4.07224 55.1434 4.07224C54.5754 4.07224 54.0674 4.22424 53.6194 4.52824C53.1794 4.83224 52.8354 5.23624 52.5874 5.74024C52.3394 6.24424 52.2154 6.78824 52.2154 7.37224C52.2154 8.02024 52.4034 8.52024 52.7794 8.87224C53.1554 9.21624 53.6274 9.38824 54.1954 9.38824ZM63.1786 3.32824C63.8506 3.32824 64.3866 3.51224 64.7866 3.88024C65.1946 4.24024 65.3986 4.76824 65.3986 5.46424C65.3986 5.72024 65.3786 5.95224 65.3386 6.16024L64.6546 10.0002H63.8266L64.4866 6.25624C64.5186 6.07224 64.5346 5.87624 64.5346 5.66824C64.5346 5.14024 64.3906 4.74024 64.1026 4.46824C63.8146 4.19624 63.4106 4.06024 62.8906 4.06024C62.2586 4.06024 61.7186 4.26024 61.2706 4.66024C60.8226 5.06024 60.5306 5.64824 60.3946 6.42424V6.38824L59.7586 10.0002H58.9186L60.0706 3.44824H60.9106L60.7066 4.57624C60.9866 4.17624 61.3426 3.86824 61.7746 3.65224C62.2066 3.43624 62.6746 3.32824 63.1786 3.32824ZM67.8203 3.44824L69.0563 9.00424L72.1883 3.44824H73.0643L67.4843 13.0842H66.5963L68.4203 9.95224L66.8843 3.44824H67.8203ZM83.0105 4.02424C82.8825 4.74424 82.5425 5.32424 81.9905 5.76424C81.4385 6.20424 80.6905 6.42424 79.7465 6.42424H78.0545L77.4305 10.0002H76.5905L78.0665 1.61224H80.5985C81.4225 1.61224 82.0385 1.78424 82.4465 2.12824C82.8545 2.47224 83.0585 2.93624 83.0585 3.52024C83.0585 3.70424 83.0425 3.87224 83.0105 4.02424ZM79.8785 5.72824C81.1905 5.72824 81.9465 5.16024 82.1465 4.02424C82.1785 3.81624 82.1945 3.66824 82.1945 3.58024C82.1945 2.71624 81.6225 2.28424 80.4785 2.28424H78.7865L78.1865 5.72824H79.8785ZM85.1639 2.21224C85.0119 2.21224 84.8879 2.16824 84.7919 2.08024C84.6959 1.98424 84.6479 1.86024 84.6479 1.70824C84.6479 1.50024 84.7199 1.32824 84.8639 1.19224C85.0079 1.04824 85.1799 0.976244 85.3799 0.976244C85.5319 0.976244 85.6519 1.02024 85.7399 1.10824C85.8359 1.19624 85.8839 1.31224 85.8839 1.45624C85.8839 1.66424 85.8119 1.84424 85.6679 1.99624C85.5239 2.14024 85.3559 2.21224 85.1639 2.21224ZM85.3559 3.44824L84.2039 10.0002H83.3639L84.5159 3.44824H85.3559ZM86.6821 9.30424H90.1141L89.9821 10.0002H85.5901L85.7221 9.30424L89.9941 4.14424H86.6821L86.8141 3.44824H91.0861L90.9541 4.14424L86.6821 9.30424ZM91.979 9.30424H95.411L95.279 10.0002H90.887L91.019 9.30424L95.291 4.14424H91.979L92.111 3.44824H96.383L96.251 4.14424L91.979 9.30424ZM96.8918 6.71224C97.0118 6.04024 97.2518 5.45224 97.6118 4.94824C97.9718 4.43624 98.4118 4.04424 98.9318 3.77224C99.4598 3.49224 100.024 3.35224 100.624 3.35224C101.248 3.35224 101.76 3.49624 102.16 3.78424C102.56 4.07224 102.82 4.44024 102.94 4.88824L103.192 3.44824H104.032L102.88 10.0002H102.04L102.292 8.54824C102.02 8.99624 101.628 9.36824 101.116 9.66424C100.612 9.95224 100.048 10.0962 99.4238 10.0962C98.9038 10.0962 98.4478 9.98824 98.0558 9.77224C97.6638 9.55624 97.3598 9.25224 97.1438 8.86024C96.9278 8.46024 96.8198 7.99224 96.8198 7.45624C96.8198 7.22424 96.8438 6.97624 96.8918 6.71224ZM102.616 6.72424C102.656 6.50024 102.676 6.30024 102.676 6.12424C102.676 5.50024 102.488 5.00424 102.112 4.63624C101.736 4.26824 101.248 4.08424 100.648 4.08424C100.184 4.08424 99.7478 4.18824 99.3398 4.39624C98.9398 4.60424 98.5998 4.90824 98.3198 5.30824C98.0398 5.70024 97.8518 6.16824 97.7558 6.71224C97.7158 6.95224 97.6958 7.15624 97.6958 7.32424C97.6958 7.95624 97.8798 8.45624 98.2478 8.82424C98.6238 9.18424 99.1118 9.36424 99.7118 9.36424C100.16 9.36424 100.588 9.25624 100.996 9.04024C101.412 8.82424 101.76 8.51624 102.04 8.11624C102.328 7.71624 102.52 7.25224 102.616 6.72424ZM106.562 4.75624C106.826 4.30024 107.17 3.94824 107.594 3.70024C108.018 3.45224 108.51 3.32824 109.07 3.32824L108.914 4.20424H108.674C108.098 4.20424 107.602 4.35224 107.186 4.64824C106.77 4.94424 106.482 5.43224 106.322 6.11224L105.638 10.0002H104.798L105.95 3.44824H106.79L106.562 4.75624ZM110.945 2.21224C110.793 2.21224 110.669 2.16824 110.573 2.08024C110.477 1.98424 110.429 1.86024 110.429 1.70824C110.429 1.50024 110.501 1.32824 110.645 1.19224C110.789 1.04824 110.961 0.976244 111.161 0.976244C111.313 0.976244 111.433 1.02024 111.521 1.10824C111.617 1.19624 111.665 1.31224 111.665 1.45624C111.665 1.66424 111.593 1.84424 111.449 1.99624C111.305 2.14024 111.137 2.21224 110.945 2.21224ZM111.137 3.44824L109.985 10.0002H109.145L110.297 3.44824H111.137ZM112.079 6.71224C112.199 6.04024 112.439 5.45224 112.799 4.94824C113.159 4.43624 113.599 4.04424 114.119 3.77224C114.647 3.49224 115.211 3.35224 115.811 3.35224C116.435 3.35224 116.947 3.49624 117.347 3.78424C117.747 4.07224 118.007 4.44024 118.127 4.88824L118.379 3.44824H119.219L118.067 10.0002H117.227L117.479 8.54824C117.207 8.99624 116.815 9.36824 116.303 9.66424C115.799 9.95224 115.235 10.0962 114.611 10.0962C114.091 10.0962 113.635 9.98824 113.243 9.77224C112.851 9.55624 112.547 9.25224 112.331 8.86024C112.115 8.46024 112.007 7.99224 112.007 7.45624C112.007 7.22424 112.031 6.97624 112.079 6.71224ZM117.803 6.72424C117.843 6.50024 117.863 6.30024 117.863 6.12424C117.863 5.50024 117.675 5.00424 117.299 4.63624C116.923 4.26824 116.435 4.08424 115.835 4.08424C115.371 4.08424 114.935 4.18824 114.527 4.39624C114.127 4.60424 113.787 4.90824 113.507 5.30824C113.227 5.70024 113.039 6.16824 112.943 6.71224C112.903 6.95224 112.883 7.15624 112.883 7.32424C112.883 7.95624 113.067 8.45624 113.435 8.82424C113.811 9.18424 114.299 9.36424 114.899 9.36424C115.347 9.36424 115.775 9.25624 116.183 9.04024C116.599 8.82424 116.947 8.51624 117.227 8.11624C117.515 7.71624 117.707 7.25224 117.803 6.72424ZM124.34 11.2002H123.5L125.396 0.520244H126.236L124.34 11.2002ZM136.588 1.61224L136.468 2.28424H134.128L132.772 10.0002H131.932L133.288 2.28424H130.96L131.08 1.61224H136.588ZM139.306 10.0962C138.762 10.0962 138.282 9.98824 137.866 9.77224C137.45 9.54824 137.126 9.23624 136.894 8.83624C136.67 8.42824 136.558 7.95224 136.558 7.40824C136.558 6.67224 136.726 5.99624 137.062 5.38024C137.398 4.75624 137.866 4.26424 138.466 3.90424C139.066 3.53624 139.734 3.35224 140.47 3.35224C141.014 3.35224 141.494 3.46424 141.91 3.68824C142.326 3.90424 142.65 4.21624 142.882 4.62424C143.114 5.02424 143.23 5.49624 143.23 6.04024C143.23 6.78424 143.058 7.46424 142.714 8.08024C142.37 8.69624 141.898 9.18824 141.298 9.55624C140.706 9.91624 140.042 10.0962 139.306 10.0962ZM139.402 9.38824C139.97 9.38824 140.478 9.23624 140.926 8.93224C141.382 8.62824 141.734 8.22424 141.982 7.72024C142.238 7.21624 142.366 6.67224 142.366 6.08824C142.366 5.43224 142.174 4.93224 141.79 4.58824C141.414 4.24424 140.934 4.07224 140.35 4.07224C139.782 4.07224 139.274 4.22424 138.826 4.52824C138.386 4.83224 138.042 5.23624 137.794 5.74024C137.546 6.24424 137.422 6.78824 137.422 7.37224C137.422 8.02024 137.61 8.52024 137.986 8.87224C138.362 9.21624 138.834 9.38824 139.402 9.38824ZM144.318 6.71224C144.438 6.04024 144.678 5.45224 145.038 4.94824C145.398 4.43624 145.842 4.04424 146.37 3.77224C146.898 3.49224 147.462 3.35224 148.062 3.35224C148.638 3.35224 149.13 3.49224 149.538 3.77224C149.954 4.05224 150.234 4.41624 150.378 4.86424L151.038 1.12024H151.878L150.306 10.0002H149.466L149.73 8.53624C149.442 8.99224 149.046 9.36824 148.542 9.66424C148.038 9.95224 147.478 10.0962 146.862 10.0962C146.07 10.0962 145.434 9.86024 144.954 9.38824C144.482 8.90824 144.246 8.26424 144.246 7.45624C144.246 7.22424 144.27 6.97624 144.318 6.71224ZM150.042 6.72424C150.082 6.50024 150.102 6.30024 150.102 6.12424C150.102 5.50024 149.914 5.00424 149.538 4.63624C149.162 4.26824 148.674 4.08424 148.074 4.08424C147.61 4.08424 147.174 4.18824 146.766 4.39624C146.366 4.60424 146.026 4.90824 145.746 5.30824C145.466 5.70024 145.278 6.16824 145.182 6.71224C145.142 6.95224 145.122 7.15624 145.122 7.32424C145.122 7.95624 145.306 8.45624 145.674 8.82424C146.05 9.18424 146.538 9.36424 147.138 9.36424C147.586 9.36424 148.014 9.25624 148.422 9.04024C148.838 8.82424 149.186 8.51624 149.466 8.11624C149.754 7.71624 149.946 7.25224 150.042 6.72424ZM155.103 10.0962C154.559 10.0962 154.079 9.98824 153.663 9.77224C153.247 9.54824 152.923 9.23624 152.691 8.83624C152.467 8.42824 152.355 7.95224 152.355 7.40824C152.355 6.67224 152.523 5.99624 152.859 5.38024C153.195 4.75624 153.663 4.26424 154.263 3.90424C154.863 3.53624 155.531 3.35224 156.267 3.35224C156.811 3.35224 157.291 3.46424 157.707 3.68824C158.123 3.90424 158.447 4.21624 158.679 4.62424C158.911 5.02424 159.027 5.49624 159.027 6.04024C159.027 6.78424 158.855 7.46424 158.511 8.08024C158.167 8.69624 157.695 9.18824 157.095 9.55624C156.503 9.91624 155.839 10.0962 155.103 10.0962ZM155.199 9.38824C155.767 9.38824 156.275 9.23624 156.723 8.93224C157.179 8.62824 157.531 8.22424 157.779 7.72024C158.035 7.21624 158.163 6.67224 158.163 6.08824C158.163 5.43224 157.971 4.93224 157.587 4.58824C157.211 4.24424 156.731 4.07224 156.147 4.07224C155.579 4.07224 155.071 4.22424 154.623 4.52824C154.183 4.83224 153.839 5.23624 153.591 5.74024C153.343 6.24424 153.219 6.78824 153.219 7.37224C153.219 8.02024 153.407 8.52024 153.783 8.87224C154.159 9.21624 154.631 9.38824 155.199 9.38824ZM162.107 10.0962C161.443 10.0962 160.903 9.94424 160.487 9.64024C160.071 9.32824 159.863 8.90424 159.863 8.36824C159.863 8.27224 159.867 8.20024 159.875 8.15224H160.691C160.659 8.53624 160.771 8.84424 161.027 9.07624C161.283 9.30824 161.659 9.42424 162.155 9.42424C162.659 9.42424 163.063 9.32024 163.367 9.11224C163.671 8.89624 163.823 8.61224 163.823 8.26024C163.823 8.05224 163.759 7.87624 163.631 7.73224C163.503 7.58824 163.343 7.47224 163.151 7.38424C162.967 7.28824 162.707 7.18024 162.371 7.06024C161.955 6.90824 161.619 6.76824 161.363 6.64024C161.115 6.50424 160.899 6.32024 160.715 6.08824C160.539 5.84824 160.451 5.54824 160.451 5.18824C160.451 4.82824 160.555 4.50824 160.763 4.22824C160.971 3.94824 161.255 3.73224 161.615 3.58024C161.983 3.42824 162.399 3.35224 162.863 3.35224C163.511 3.35224 164.039 3.51224 164.447 3.83224C164.863 4.15224 165.071 4.57624 165.071 5.10424C165.071 5.21624 165.067 5.30024 165.059 5.35624H164.267C164.275 5.32424 164.279 5.27224 164.279 5.20024C164.279 4.84824 164.139 4.56424 163.859 4.34824C163.587 4.13224 163.235 4.02424 162.803 4.02424C162.371 4.02424 162.011 4.12824 161.723 4.33624C161.443 4.53624 161.303 4.80824 161.303 5.15224C161.303 5.38424 161.371 5.58024 161.507 5.74024C161.643 5.89224 161.811 6.01624 162.011 6.11224C162.211 6.20824 162.479 6.32024 162.815 6.44824C163.215 6.60024 163.535 6.74024 163.775 6.86824C164.023 6.99624 164.231 7.17224 164.399 7.39624C164.567 7.62024 164.651 7.90024 164.651 8.23624C164.651 8.80424 164.415 9.25624 163.943 9.59224C163.471 9.92824 162.859 10.0962 162.107 10.0962ZM172.459 10.0962C171.915 10.0962 171.435 9.98824 171.019 9.77224C170.603 9.54824 170.279 9.23624 170.047 8.83624C169.823 8.42824 169.711 7.95224 169.711 7.40824C169.711 6.67224 169.879 5.99624 170.215 5.38024C170.551 4.75624 171.019 4.26424 171.619 3.90424C172.219 3.53624 172.887 3.35224 173.623 3.35224C174.167 3.35224 174.647 3.46424 175.063 3.68824C175.479 3.90424 175.803 4.21624 176.035 4.62424C176.267 5.02424 176.383 5.49624 176.383 6.04024C176.383 6.78424 176.211 7.46424 175.867 8.08024C175.523 8.69624 175.051 9.18824 174.451 9.55624C173.859 9.91624 173.195 10.0962 172.459 10.0962ZM172.555 9.38824C173.123 9.38824 173.631 9.23624 174.079 8.93224C174.535 8.62824 174.887 8.22424 175.135 7.72024C175.391 7.21624 175.519 6.67224 175.519 6.08824C175.519 5.43224 175.327 4.93224 174.943 4.58824C174.567 4.24424 174.087 4.07224 173.503 4.07224C172.935 4.07224 172.427 4.22424 171.979 4.52824C171.539 4.83224 171.195 5.23624 170.947 5.74024C170.699 6.24424 170.575 6.78824 170.575 7.37224C170.575 8.02024 170.763 8.52024 171.139 8.87224C171.515 9.21624 171.987 9.38824 172.555 9.38824ZM179.462 10.0962C178.798 10.0962 178.258 9.94424 177.842 9.64024C177.426 9.32824 177.218 8.90424 177.218 8.36824C177.218 8.27224 177.222 8.20024 177.23 8.15224H178.046C178.014 8.53624 178.126 8.84424 178.382 9.07624C178.638 9.30824 179.014 9.42424 179.51 9.42424C180.014 9.42424 180.418 9.32024 180.722 9.11224C181.026 8.89624 181.178 8.61224 181.178 8.26024C181.178 8.05224 181.114 7.87624 180.986 7.73224C180.858 7.58824 180.698 7.47224 180.506 7.38424C180.322 7.28824 180.062 7.18024 179.726 7.06024C179.31 6.90824 178.974 6.76824 178.718 6.64024C178.47 6.50424 178.254 6.32024 178.07 6.08824C177.894 5.84824 177.806 5.54824 177.806 5.18824C177.806 4.82824 177.91 4.50824 178.118 4.22824C178.326 3.94824 178.61 3.73224 178.97 3.58024C179.338 3.42824 179.754 3.35224 180.218 3.35224C180.866 3.35224 181.394 3.51224 181.802 3.83224C182.218 4.15224 182.426 4.57624 182.426 5.10424C182.426 5.21624 182.422 5.30024 182.414 5.35624H181.622C181.63 5.32424 181.634 5.27224 181.634 5.20024C181.634 4.84824 181.494 4.56424 181.214 4.34824C180.942 4.13224 180.59 4.02424 180.158 4.02424C179.726 4.02424 179.366 4.12824 179.078 4.33624C178.798 4.53624 178.658 4.80824 178.658 5.15224C178.658 5.38424 178.726 5.58024 178.862 5.74024C178.998 5.89224 179.166 6.01624 179.366 6.11224C179.566 6.20824 179.834 6.32024 180.17 6.44824C180.57 6.60024 180.89 6.74024 181.13 6.86824C181.378 6.99624 181.586 7.17224 181.754 7.39624C181.922 7.62024 182.006 7.90024 182.006 8.23624C182.006 8.80424 181.77 9.25624 181.298 9.59224C180.826 9.92824 180.214 10.0962 179.462 10.0962ZM190.906 1.61224C192.122 1.61224 193.058 1.89624 193.714 2.46424C194.37 3.03224 194.698 3.83224 194.698 4.86424C194.698 5.14424 194.666 5.46424 194.602 5.82424C194.45 6.68824 194.142 7.43624 193.678 8.06824C193.214 8.69224 192.618 9.17224 191.89 9.50824C191.17 9.83624 190.346 10.0002 189.418 10.0002H186.934L188.41 1.61224H190.906ZM189.538 9.34024C190.706 9.34024 191.65 9.03224 192.37 8.41624C193.09 7.79224 193.546 6.92824 193.738 5.82424C193.794 5.53624 193.822 5.24824 193.822 4.96024C193.822 4.11224 193.566 3.45624 193.054 2.99224C192.542 2.52824 191.782 2.29624 190.774 2.29624H189.13L187.894 9.34024H189.538ZM197.207 2.21224C197.055 2.21224 196.931 2.16824 196.835 2.08024C196.739 1.98424 196.691 1.86024 196.691 1.70824C196.691 1.50024 196.763 1.32824 196.907 1.19224C197.051 1.04824 197.223 0.976244 197.423 0.976244C197.575 0.976244 197.695 1.02024 197.783 1.10824C197.879 1.19624 197.927 1.31224 197.927 1.45624C197.927 1.66424 197.855 1.84424 197.711 1.99624C197.567 2.14024 197.399 2.21224 197.207 2.21224ZM197.399 3.44824L196.247 10.0002H195.407L196.559 3.44824H197.399ZM199.913 4.75624C200.177 4.30024 200.521 3.94824 200.945 3.70024C201.369 3.45224 201.861 3.32824 202.421 3.32824L202.265 4.20424H202.025C201.449 4.20424 200.953 4.35224 200.537 4.64824C200.121 4.94424 199.833 5.43224 199.673 6.11224L198.989 10.0002H198.149L199.301 3.44824H200.141L199.913 4.75624ZM206.505 3.35224C207.057 3.35224 207.529 3.46024 207.921 3.67624C208.313 3.88424 208.609 4.17224 208.809 4.54024C209.017 4.90824 209.121 5.32824 209.121 5.80024C209.121 6.01624 209.105 6.20824 209.073 6.37624C209.025 6.61624 208.977 6.83224 208.929 7.02424H203.493C203.469 7.17624 203.457 7.32024 203.457 7.45624C203.457 8.07224 203.641 8.54824 204.009 8.88424C204.385 9.22024 204.861 9.38824 205.437 9.38824C205.989 9.38824 206.473 9.25624 206.889 8.99224C207.305 8.72824 207.609 8.37224 207.801 7.92424H208.701C208.429 8.56424 207.993 9.08824 207.393 9.49624C206.801 9.89624 206.109 10.0962 205.317 10.0962C204.501 10.0962 203.845 9.86424 203.349 9.40024C202.861 8.92824 202.617 8.28824 202.617 7.48024C202.617 7.24024 202.641 6.98824 202.689 6.72424C202.809 6.04424 203.049 5.44824 203.409 4.93624C203.777 4.42424 204.229 4.03224 204.765 3.76024C205.301 3.48824 205.881 3.35224 206.505 3.35224ZM208.209 6.40024C208.249 6.17624 208.269 5.98824 208.269 5.83624C208.269 5.26824 208.089 4.83224 207.729 4.52824C207.369 4.22424 206.909 4.07224 206.349 4.07224C205.941 4.07224 205.549 4.16024 205.173 4.33624C204.797 4.51224 204.469 4.77624 204.189 5.12824C203.909 5.48024 203.717 5.90424 203.613 6.40024H208.209ZM211.762 2.21224C211.61 2.21224 211.486 2.16824 211.39 2.08024C211.294 1.98424 211.246 1.86024 211.246 1.70824C211.246 1.50024 211.318 1.32824 211.462 1.19224C211.606 1.04824 211.778 0.976244 211.978 0.976244C212.13 0.976244 212.25 1.02024 212.338 1.10824C212.434 1.19624 212.482 1.31224 212.482 1.45624C212.482 1.66424 212.41 1.84424 212.266 1.99624C212.122 2.14024 211.954 2.21224 211.762 2.21224ZM211.954 3.44824L210.802 10.0002H209.962L211.114 3.44824H211.954ZM214.096 8.22424C214.072 8.36824 214.06 8.49224 214.06 8.59624C214.06 8.85224 214.128 9.03224 214.264 9.13624C214.408 9.23224 214.64 9.28024 214.96 9.28024H215.728L215.596 10.0002H214.696C214.2 10.0002 213.828 9.90424 213.58 9.71224C213.332 9.52024 213.208 9.20424 213.208 8.76424C213.208 8.58824 213.224 8.40824 213.256 8.22424L213.976 4.15624H213.064L213.196 3.44824H214.108L214.396 1.80424H215.236L214.948 3.44824H216.76L216.628 4.15624H214.816L214.096 8.22424ZM219.861 10.0962C219.317 10.0962 218.837 9.98824 218.421 9.77224C218.005 9.54824 217.681 9.23624 217.449 8.83624C217.225 8.42824 217.113 7.95224 217.113 7.40824C217.113 6.67224 217.281 5.99624 217.617 5.38024C217.953 4.75624 218.421 4.26424 219.021 3.90424C219.621 3.53624 220.289 3.35224 221.025 3.35224C221.569 3.35224 222.049 3.46424 222.465 3.68824C222.881 3.90424 223.205 4.21624 223.437 4.62424C223.669 5.02424 223.785 5.49624 223.785 6.04024C223.785 6.78424 223.613 7.46424 223.269 8.08024C222.925 8.69624 222.453 9.18824 221.853 9.55624C221.261 9.91624 220.597 10.0962 219.861 10.0962ZM219.957 9.38824C220.525 9.38824 221.033 9.23624 221.481 8.93224C221.937 8.62824 222.289 8.22424 222.537 7.72024C222.793 7.21624 222.921 6.67224 222.921 6.08824C222.921 5.43224 222.729 4.93224 222.345 4.58824C221.969 4.24424 221.489 4.07224 220.905 4.07224C220.337 4.07224 219.829 4.22424 219.381 4.52824C218.941 4.83224 218.597 5.23624 218.349 5.74024C218.101 6.24424 217.977 6.78824 217.977 7.37224C217.977 8.02024 218.165 8.52024 218.541 8.87224C218.917 9.21624 219.389 9.38824 219.957 9.38824ZM226.864 10.0962C226.2 10.0962 225.66 9.94424 225.244 9.64024C224.828 9.32824 224.62 8.90424 224.62 8.36824C224.62 8.27224 224.624 8.20024 224.632 8.15224H225.448C225.416 8.53624 225.528 8.84424 225.784 9.07624C226.04 9.30824 226.416 9.42424 226.912 9.42424C227.416 9.42424 227.82 9.32024 228.124 9.11224C228.428 8.89624 228.58 8.61224 228.58 8.26024C228.58 8.05224 228.516 7.87624 228.388 7.73224C228.26 7.58824 228.1 7.47224 227.908 7.38424C227.724 7.28824 227.464 7.18024 227.128 7.06024C226.712 6.90824 226.376 6.76824 226.12 6.64024C225.872 6.50424 225.656 6.32024 225.472 6.08824C225.296 5.84824 225.208 5.54824 225.208 5.18824C225.208 4.82824 225.312 4.50824 225.52 4.22824C225.728 3.94824 226.012 3.73224 226.372 3.58024C226.74 3.42824 227.156 3.35224 227.62 3.35224C228.268 3.35224 228.796 3.51224 229.204 3.83224C229.62 4.15224 229.828 4.57624 229.828 5.10424C229.828 5.21624 229.824 5.30024 229.816 5.35624H229.024C229.032 5.32424 229.036 5.27224 229.036 5.20024C229.036 4.84824 228.896 4.56424 228.616 4.34824C228.344 4.13224 227.992 4.02424 227.56 4.02424C227.128 4.02424 226.768 4.12824 226.48 4.33624C226.2 4.53624 226.06 4.80824 226.06 5.15224C226.06 5.38424 226.128 5.58024 226.264 5.74024C226.4 5.89224 226.568 6.01624 226.768 6.11224C226.968 6.20824 227.236 6.32024 227.572 6.44824C227.972 6.60024 228.292 6.74024 228.532 6.86824C228.78 6.99624 228.988 7.17224 229.156 7.39624C229.324 7.62024 229.408 7.90024 229.408 8.23624C229.408 8.80424 229.172 9.25624 228.7 9.59224C228.228 9.92824 227.616 10.0962 226.864 10.0962ZM238.345 1.61224C239.169 1.61224 239.785 1.78824 240.193 2.14024C240.609 2.49224 240.817 2.96424 240.817 3.55624C240.817 3.66024 240.801 3.82424 240.769 4.04824C240.665 4.65624 240.401 5.17624 239.977 5.60824C239.553 6.03224 238.989 6.30824 238.285 6.43624L239.809 10.0002H238.801L237.349 6.49624H235.789L235.177 10.0002H234.337L235.813 1.61224H238.345ZM239.893 4.04824C239.917 3.88824 239.929 3.74424 239.929 3.61624C239.929 3.19224 239.789 2.86424 239.509 2.63224C239.229 2.40024 238.797 2.28424 238.213 2.28424H236.533L235.909 5.82424H237.601C238.265 5.82424 238.789 5.66424 239.173 5.34424C239.557 5.02424 239.797 4.59224 239.893 4.04824ZM245.388 3.35224C245.94 3.35224 246.412 3.46024 246.804 3.67624C247.196 3.88424 247.492 4.17224 247.692 4.54024C247.9 4.90824 248.004 5.32824 248.004 5.80024C248.004 6.01624 247.988 6.20824 247.956 6.37624C247.908 6.61624 247.86 6.83224 247.812 7.02424H242.376C242.352 7.17624 242.34 7.32024 242.34 7.45624C242.34 8.07224 242.524 8.54824 242.892 8.88424C243.268 9.22024 243.744 9.38824 244.32 9.38824C244.872 9.38824 245.356 9.25624 245.772 8.99224C246.188 8.72824 246.492 8.37224 246.684 7.92424H247.584C247.312 8.56424 246.876 9.08824 246.276 9.49624C245.684 9.89624 244.992 10.0962 244.2 10.0962C243.384 10.0962 242.728 9.86424 242.232 9.40024C241.744 8.92824 241.5 8.28824 241.5 7.48024C241.5 7.24024 241.524 6.98824 241.572 6.72424C241.692 6.04424 241.932 5.44824 242.292 4.93624C242.66 4.42424 243.112 4.03224 243.648 3.76024C244.184 3.48824 244.764 3.35224 245.388 3.35224ZM247.092 6.40024C247.132 6.17624 247.152 5.98824 247.152 5.83624C247.152 5.26824 246.972 4.83224 246.612 4.52824C246.252 4.22424 245.792 4.07224 245.232 4.07224C244.824 4.07224 244.432 4.16024 244.056 4.33624C243.68 4.51224 243.352 4.77624 243.072 5.12824C242.792 5.48024 242.6 5.90424 242.496 6.40024H247.092ZM251.028 10.0962C250.364 10.0962 249.824 9.94424 249.408 9.64024C248.992 9.32824 248.784 8.90424 248.784 8.36824C248.784 8.27224 248.788 8.20024 248.796 8.15224H249.612C249.58 8.53624 249.692 8.84424 249.948 9.07624C250.204 9.30824 250.58 9.42424 251.076 9.42424C251.58 9.42424 251.984 9.32024 252.288 9.11224C252.592 8.89624 252.744 8.61224 252.744 8.26024C252.744 8.05224 252.68 7.87624 252.552 7.73224C252.424 7.58824 252.264 7.47224 252.072 7.38424C251.888 7.28824 251.628 7.18024 251.292 7.06024C250.876 6.90824 250.54 6.76824 250.284 6.64024C250.036 6.50424 249.82 6.32024 249.636 6.08824C249.46 5.84824 249.372 5.54824 249.372 5.18824C249.372 4.82824 249.476 4.50824 249.684 4.22824C249.892 3.94824 250.176 3.73224 250.536 3.58024C250.904 3.42824 251.32 3.35224 251.784 3.35224C252.432 3.35224 252.96 3.51224 253.368 3.83224C253.784 4.15224 253.992 4.57624 253.992 5.10424C253.992 5.21624 253.988 5.30024 253.98 5.35624H253.188C253.196 5.32424 253.2 5.27224 253.2 5.20024C253.2 4.84824 253.06 4.56424 252.78 4.34824C252.508 4.13224 252.156 4.02424 251.724 4.02424C251.292 4.02424 250.932 4.12824 250.644 4.33624C250.364 4.53624 250.224 4.80824 250.224 5.15224C250.224 5.38424 250.292 5.58024 250.428 5.74024C250.564 5.89224 250.732 6.01624 250.932 6.11224C251.132 6.20824 251.4 6.32024 251.736 6.44824C252.136 6.60024 252.456 6.74024 252.696 6.86824C252.944 6.99624 253.152 7.17224 253.32 7.39624C253.488 7.62024 253.572 7.90024 253.572 8.23624C253.572 8.80424 253.336 9.25624 252.864 9.59224C252.392 9.92824 251.78 10.0962 251.028 10.0962ZM258.97 3.35224C259.522 3.35224 259.994 3.46024 260.386 3.67624C260.778 3.88424 261.074 4.17224 261.274 4.54024C261.482 4.90824 261.586 5.32824 261.586 5.80024C261.586 6.01624 261.57 6.20824 261.538 6.37624C261.49 6.61624 261.442 6.83224 261.394 7.02424H255.958C255.934 7.17624 255.922 7.32024 255.922 7.45624C255.922 8.07224 256.106 8.54824 256.474 8.88424C256.85 9.22024 257.326 9.38824 257.902 9.38824C258.454 9.38824 258.938 9.25624 259.354 8.99224C259.77 8.72824 260.074 8.37224 260.266 7.92424H261.166C260.894 8.56424 260.458 9.08824 259.858 9.49624C259.266 9.89624 258.574 10.0962 257.782 10.0962C256.966 10.0962 256.31 9.86424 255.814 9.40024C255.326 8.92824 255.082 8.28824 255.082 7.48024C255.082 7.24024 255.106 6.98824 255.154 6.72424C255.274 6.04424 255.514 5.44824 255.874 4.93624C256.242 4.42424 256.694 4.03224 257.23 3.76024C257.766 3.48824 258.346 3.35224 258.97 3.35224ZM260.674 6.40024C260.714 6.17624 260.734 5.98824 260.734 5.83624C260.734 5.26824 260.554 4.83224 260.194 4.52824C259.834 4.22424 259.374 4.07224 258.814 4.07224C258.406 4.07224 258.014 4.16024 257.638 4.33624C257.262 4.51224 256.934 4.77624 256.654 5.12824C256.374 5.48024 256.182 5.90424 256.078 6.40024H260.674ZM264.19 4.75624C264.454 4.30024 264.798 3.94824 265.222 3.70024C265.646 3.45224 266.138 3.32824 266.698 3.32824L266.542 4.20424H266.302C265.726 4.20424 265.23 4.35224 264.814 4.64824C264.398 4.94424 264.11 5.43224 263.95 6.11224L263.266 10.0002H262.426L263.578 3.44824H264.418L264.19 4.75624ZM269.258 9.14824L272.462 3.44824H273.374L269.582 10.0002H268.61L267.146 3.44824H268.046L269.258 9.14824ZM273.529 6.71224C273.649 6.04024 273.889 5.45224 274.249 4.94824C274.609 4.43624 275.049 4.04424 275.569 3.77224C276.097 3.49224 276.661 3.35224 277.261 3.35224C277.885 3.35224 278.397 3.49624 278.797 3.78424C279.197 4.07224 279.457 4.44024 279.577 4.88824L279.829 3.44824H280.669L279.517 10.0002H278.677L278.929 8.54824C278.657 8.99624 278.265 9.36824 277.753 9.66424C277.249 9.95224 276.685 10.0962 276.061 10.0962C275.541 10.0962 275.085 9.98824 274.693 9.77224C274.301 9.55624 273.997 9.25224 273.781 8.86024C273.565 8.46024 273.457 7.99224 273.457 7.45624C273.457 7.22424 273.481 6.97624 273.529 6.71224ZM279.253 6.72424C279.293 6.50024 279.313 6.30024 279.313 6.12424C279.313 5.50024 279.125 5.00424 278.749 4.63624C278.373 4.26824 277.885 4.08424 277.285 4.08424C276.821 4.08424 276.385 4.18824 275.977 4.39624C275.577 4.60424 275.237 4.90824 274.957 5.30824C274.677 5.70024 274.489 6.16824 274.393 6.71224C274.353 6.95224 274.333 7.15624 274.333 7.32424C274.333 7.95624 274.517 8.45624 274.885 8.82424C275.261 9.18424 275.749 9.36424 276.349 9.36424C276.797 9.36424 277.225 9.25624 277.633 9.04024C278.049 8.82424 278.397 8.51624 278.677 8.11624C278.965 7.71624 279.157 7.25224 279.253 6.72424ZM281.626 6.71224C281.746 6.04024 281.986 5.45224 282.346 4.94824C282.706 4.43624 283.15 4.04424 283.678 3.77224C284.206 3.49224 284.77 3.35224 285.37 3.35224C285.946 3.35224 286.438 3.49224 286.846 3.77224C287.262 4.05224 287.542 4.41624 287.686 4.86424L288.346 1.12024H289.186L287.614 10.0002H286.774L287.038 8.53624C286.75 8.99224 286.354 9.36824 285.85 9.66424C285.346 9.95224 284.786 10.0962 284.17 10.0962C283.378 10.0962 282.742 9.86024 282.262 9.38824C281.79 8.90824 281.554 8.26424 281.554 7.45624C281.554 7.22424 281.578 6.97624 281.626 6.71224ZM287.35 6.72424C287.39 6.50024 287.41 6.30024 287.41 6.12424C287.41 5.50024 287.222 5.00424 286.846 4.63624C286.47 4.26824 285.982 4.08424 285.382 4.08424C284.918 4.08424 284.482 4.18824 284.074 4.39624C283.674 4.60424 283.334 4.90824 283.054 5.30824C282.774 5.70024 282.586 6.16824 282.49 6.71224C282.45 6.95224 282.43 7.15624 282.43 7.32424C282.43 7.95624 282.614 8.45624 282.982 8.82424C283.358 9.18424 283.846 9.36424 284.446 9.36424C284.894 9.36424 285.322 9.25624 285.73 9.04024C286.146 8.82424 286.494 8.51624 286.774 8.11624C287.062 7.71624 287.254 7.25224 287.35 6.72424ZM292.412 10.0962C291.868 10.0962 291.388 9.98824 290.972 9.77224C290.556 9.54824 290.232 9.23624 290 8.83624C289.776 8.42824 289.664 7.95224 289.664 7.40824C289.664 6.67224 289.832 5.99624 290.168 5.38024C290.504 4.75624 290.972 4.26424 291.572 3.90424C292.172 3.53624 292.84 3.35224 293.576 3.35224C294.12 3.35224 294.6 3.46424 295.016 3.68824C295.432 3.90424 295.756 4.21624 295.988 4.62424C296.22 5.02424 296.336 5.49624 296.336 6.04024C296.336 6.78424 296.164 7.46424 295.82 8.08024C295.476 8.69624 295.004 9.18824 294.404 9.55624C293.812 9.91624 293.148 10.0962 292.412 10.0962ZM292.508 9.38824C293.076 9.38824 293.584 9.23624 294.032 8.93224C294.488 8.62824 294.84 8.22424 295.088 7.72024C295.344 7.21624 295.472 6.67224 295.472 6.08824C295.472 5.43224 295.28 4.93224 294.896 4.58824C294.52 4.24424 294.04 4.07224 293.456 4.07224C292.888 4.07224 292.38 4.22424 291.932 4.52824C291.492 4.83224 291.148 5.23624 290.9 5.74024C290.652 6.24424 290.528 6.78824 290.528 7.37224C290.528 8.02024 290.716 8.52024 291.092 8.87224C291.468 9.21624 291.94 9.38824 292.508 9.38824ZM299.415 10.0962C298.751 10.0962 298.211 9.94424 297.795 9.64024C297.379 9.32824 297.171 8.90424 297.171 8.36824C297.171 8.27224 297.175 8.20024 297.183 8.15224H297.999C297.967 8.53624 298.079 8.84424 298.335 9.07624C298.591 9.30824 298.967 9.42424 299.463 9.42424C299.967 9.42424 300.371 9.32024 300.675 9.11224C300.979 8.89624 301.131 8.61224 301.131 8.26024C301.131 8.05224 301.067 7.87624 300.939 7.73224C300.811 7.58824 300.651 7.47224 300.459 7.38424C300.275 7.28824 300.015 7.18024 299.679 7.06024C299.263 6.90824 298.927 6.76824 298.671 6.64024C298.423 6.50424 298.207 6.32024 298.023 6.08824C297.847 5.84824 297.759 5.54824 297.759 5.18824C297.759 4.82824 297.863 4.50824 298.071 4.22824C298.279 3.94824 298.563 3.73224 298.923 3.58024C299.291 3.42824 299.707 3.35224 300.171 3.35224C300.819 3.35224 301.347 3.51224 301.755 3.83224C302.171 4.15224 302.379 4.57624 302.379 5.10424C302.379 5.21624 302.375 5.30024 302.367 5.35624H301.575C301.583 5.32424 301.587 5.27224 301.587 5.20024C301.587 4.84824 301.447 4.56424 301.167 4.34824C300.895 4.13224 300.543 4.02424 300.111 4.02424C299.679 4.02424 299.319 4.12824 299.031 4.33624C298.751 4.53624 298.611 4.80824 298.611 5.15224C298.611 5.38424 298.679 5.58024 298.815 5.74024C298.951 5.89224 299.119 6.01624 299.319 6.11224C299.519 6.20824 299.787 6.32024 300.123 6.44824C300.523 6.60024 300.843 6.74024 301.083 6.86824C301.331 6.99624 301.539 7.17224 301.707 7.39624C301.875 7.62024 301.959 7.90024 301.959 8.23624C301.959 8.80424 301.723 9.25624 301.251 9.59224C300.779 9.92824 300.167 10.0962 299.415 10.0962ZM307.703 11.2002H306.863L308.759 0.520244H309.599L307.703 11.2002ZM317.527 1.61224C318.743 1.61224 319.679 1.89624 320.335 2.46424C320.991 3.03224 321.319 3.83224 321.319 4.86424C321.319 5.14424 321.287 5.46424 321.223 5.82424C321.071 6.68824 320.763 7.43624 320.299 8.06824C319.835 8.69224 319.239 9.17224 318.511 9.50824C317.791 9.83624 316.967 10.0002 316.039 10.0002H313.555L315.031 1.61224H317.527ZM316.159 9.34024C317.327 9.34024 318.271 9.03224 318.991 8.41624C319.711 7.79224 320.167 6.92824 320.359 5.82424C320.415 5.53624 320.443 5.24824 320.443 4.96024C320.443 4.11224 320.187 3.45624 319.675 2.99224C319.163 2.52824 318.403 2.29624 317.395 2.29624H315.751L314.515 9.34024H316.159ZM326.036 3.35224C326.588 3.35224 327.06 3.46024 327.452 3.67624C327.844 3.88424 328.14 4.17224 328.34 4.54024C328.548 4.90824 328.652 5.32824 328.652 5.80024C328.652 6.01624 328.636 6.20824 328.604 6.37624C328.556 6.61624 328.508 6.83224 328.46 7.02424H323.024C323 7.17624 322.988 7.32024 322.988 7.45624C322.988 8.07224 323.172 8.54824 323.54 8.88424C323.916 9.22024 324.392 9.38824 324.968 9.38824C325.52 9.38824 326.004 9.25624 326.42 8.99224C326.836 8.72824 327.14 8.37224 327.332 7.92424H328.232C327.96 8.56424 327.524 9.08824 326.924 9.49624C326.332 9.89624 325.64 10.0962 324.848 10.0962C324.032 10.0962 323.376 9.86424 322.88 9.40024C322.392 8.92824 322.148 8.28824 322.148 7.48024C322.148 7.24024 322.172 6.98824 322.22 6.72424C322.34 6.04424 322.58 5.44824 322.94 4.93624C323.308 4.42424 323.76 4.03224 324.296 3.76024C324.832 3.48824 325.412 3.35224 326.036 3.35224ZM327.74 6.40024C327.78 6.17624 327.8 5.98824 327.8 5.83624C327.8 5.26824 327.62 4.83224 327.26 4.52824C326.9 4.22424 326.44 4.07224 325.88 4.07224C325.472 4.07224 325.08 4.16024 324.704 4.33624C324.328 4.51224 324 4.77624 323.72 5.12824C323.44 5.48024 323.248 5.90424 323.144 6.40024H327.74ZM331.677 10.0962C331.013 10.0962 330.473 9.94424 330.057 9.64024C329.641 9.32824 329.433 8.90424 329.433 8.36824C329.433 8.27224 329.437 8.20024 329.445 8.15224H330.261C330.229 8.53624 330.341 8.84424 330.597 9.07624C330.853 9.30824 331.229 9.42424 331.725 9.42424C332.229 9.42424 332.633 9.32024 332.937 9.11224C333.241 8.89624 333.393 8.61224 333.393 8.26024C333.393 8.05224 333.329 7.87624 333.201 7.73224C333.073 7.58824 332.913 7.47224 332.721 7.38424C332.537 7.28824 332.277 7.18024 331.941 7.06024C331.525 6.90824 331.189 6.76824 330.933 6.64024C330.685 6.50424 330.469 6.32024 330.285 6.08824C330.109 5.84824 330.021 5.54824 330.021 5.18824C330.021 4.82824 330.125 4.50824 330.333 4.22824C330.541 3.94824 330.825 3.73224 331.185 3.58024C331.553 3.42824 331.969 3.35224 332.433 3.35224C333.081 3.35224 333.609 3.51224 334.017 3.83224C334.433 4.15224 334.641 4.57624 334.641 5.10424C334.641 5.21624 334.637 5.30024 334.629 5.35624H333.837C333.845 5.32424 333.849 5.27224 333.849 5.20024C333.849 4.84824 333.709 4.56424 333.429 4.34824C333.157 4.13224 332.805 4.02424 332.373 4.02424C331.941 4.02424 331.581 4.12824 331.293 4.33624C331.013 4.53624 330.873 4.80824 330.873 5.15224C330.873 5.38424 330.941 5.58024 331.077 5.74024C331.213 5.89224 331.381 6.01624 331.581 6.11224C331.781 6.20824 332.049 6.32024 332.385 6.44824C332.785 6.60024 333.105 6.74024 333.345 6.86824C333.593 6.99624 333.801 7.17224 333.969 7.39624C334.137 7.62024 334.221 7.90024 334.221 8.23624C334.221 8.80424 333.985 9.25624 333.513 9.59224C333.041 9.92824 332.429 10.0962 331.677 10.0962ZM339.618 3.35224C340.17 3.35224 340.642 3.46024 341.034 3.67624C341.426 3.88424 341.722 4.17224 341.922 4.54024C342.13 4.90824 342.234 5.32824 342.234 5.80024C342.234 6.01624 342.218 6.20824 342.186 6.37624C342.138 6.61624 342.09 6.83224 342.042 7.02424H336.606C336.582 7.17624 336.57 7.32024 336.57 7.45624C336.57 8.07224 336.754 8.54824 337.122 8.88424C337.498 9.22024 337.974 9.38824 338.55 9.38824C339.102 9.38824 339.586 9.25624 340.002 8.99224C340.418 8.72824 340.722 8.37224 340.914 7.92424H341.814C341.542 8.56424 341.106 9.08824 340.506 9.49624C339.914 9.89624 339.222 10.0962 338.43 10.0962C337.614 10.0962 336.958 9.86424 336.462 9.40024C335.974 8.92824 335.73 8.28824 335.73 7.48024C335.73 7.24024 335.754 6.98824 335.802 6.72424C335.922 6.04424 336.162 5.44824 336.522 4.93624C336.89 4.42424 337.342 4.03224 337.878 3.76024C338.414 3.48824 338.994 3.35224 339.618 3.35224ZM341.322 6.40024C341.362 6.17624 341.382 5.98824 341.382 5.83624C341.382 5.26824 341.202 4.83224 340.842 4.52824C340.482 4.22424 340.022 4.07224 339.462 4.07224C339.054 4.07224 338.662 4.16024 338.286 4.33624C337.91 4.51224 337.582 4.77624 337.302 5.12824C337.022 5.48024 336.83 5.90424 336.726 6.40024H341.322ZM347.335 3.32824C348.007 3.32824 348.543 3.51224 348.943 3.88024C349.351 4.24024 349.555 4.76824 349.555 5.46424C349.555 5.72024 349.535 5.95224 349.495 6.16024L348.811 10.0002H347.983L348.643 6.25624C348.675 6.07224 348.691 5.87624 348.691 5.66824C348.691 5.14024 348.547 4.74024 348.259 4.46824C347.971 4.19624 347.567 4.06024 347.047 4.06024C346.415 4.06024 345.875 4.26024 345.427 4.66024C344.979 5.06024 344.687 5.64824 344.551 6.42424V6.38824L343.915 10.0002H343.075L344.227 3.44824H345.067L344.863 4.57624C345.143 4.17624 345.499 3.86824 345.931 3.65224C346.363 3.43624 346.831 3.32824 347.335 3.32824ZM353.153 9.14824L356.357 3.44824H357.269L353.477 10.0002H352.505L351.041 3.44824H351.941L353.153 9.14824ZM360.111 10.0962C359.567 10.0962 359.087 9.98824 358.671 9.77224C358.255 9.54824 357.931 9.23624 357.699 8.83624C357.475 8.42824 357.363 7.95224 357.363 7.40824C357.363 6.67224 357.531 5.99624 357.867 5.38024C358.203 4.75624 358.671 4.26424 359.271 3.90424C359.871 3.53624 360.539 3.35224 361.275 3.35224C361.819 3.35224 362.299 3.46424 362.715 3.68824C363.131 3.90424 363.455 4.21624 363.687 4.62424C363.919 5.02424 364.035 5.49624 364.035 6.04024C364.035 6.78424 363.863 7.46424 363.519 8.08024C363.175 8.69624 362.703 9.18824 362.103 9.55624C361.511 9.91624 360.847 10.0962 360.111 10.0962ZM360.207 9.38824C360.775 9.38824 361.283 9.23624 361.731 8.93224C362.187 8.62824 362.539 8.22424 362.787 7.72024C363.043 7.21624 363.171 6.67224 363.171 6.08824C363.171 5.43224 362.979 4.93224 362.595 4.58824C362.219 4.24424 361.739 4.07224 361.155 4.07224C360.587 4.07224 360.079 4.22424 359.631 4.52824C359.191 4.83224 358.847 5.23624 358.599 5.74024C358.351 6.24424 358.227 6.78824 358.227 7.37224C358.227 8.02024 358.415 8.52024 358.791 8.87224C359.167 9.21624 359.639 9.38824 360.207 9.38824ZM367.342 1.12024L365.77 10.0002H364.93L366.502 1.12024H367.342ZM370.157 9.14824L373.361 3.44824H374.273L370.48 10.0002H369.509L368.045 3.44824H368.945L370.157 9.14824ZM376.035 2.21224C375.883 2.21224 375.759 2.16824 375.663 2.08024C375.567 1.98424 375.519 1.86024 375.519 1.70824C375.519 1.50024 375.591 1.32824 375.735 1.19224C375.879 1.04824 376.051 0.976244 376.251 0.976244C376.403 0.976244 376.523 1.02024 376.611 1.10824C376.707 1.19624 376.755 1.31224 376.755 1.45624C376.755 1.66424 376.683 1.84424 376.539 1.99624C376.395 2.14024 376.227 2.21224 376.035 2.21224ZM376.227 3.44824L375.075 10.0002H374.235L375.387 3.44824H376.227ZM377.169 6.71224C377.289 6.04024 377.529 5.45224 377.889 4.94824C378.249 4.43624 378.693 4.04424 379.221 3.77224C379.749 3.49224 380.313 3.35224 380.913 3.35224C381.489 3.35224 381.981 3.49224 382.389 3.77224C382.805 4.05224 383.085 4.41624 383.229 4.86424L383.889 1.12024H384.729L383.157 10.0002H382.317L382.581 8.53624C382.293 8.99224 381.897 9.36824 381.393 9.66424C380.889 9.95224 380.329 10.0962 379.713 10.0962C378.921 10.0962 378.285 9.86024 377.805 9.38824C377.333 8.90824 377.097 8.26424 377.097 7.45624C377.097 7.22424 377.121 6.97624 377.169 6.71224ZM382.893 6.72424C382.933 6.50024 382.953 6.30024 382.953 6.12424C382.953 5.50024 382.765 5.00424 382.389 4.63624C382.013 4.26824 381.525 4.08424 380.925 4.08424C380.461 4.08424 380.025 4.18824 379.617 4.39624C379.217 4.60424 378.877 4.90824 378.597 5.30824C378.317 5.70024 378.129 6.16824 378.033 6.71224C377.993 6.95224 377.973 7.15624 377.973 7.32424C377.973 7.95624 378.157 8.45624 378.525 8.82424C378.901 9.18424 379.389 9.36424 379.989 9.36424C380.437 9.36424 380.865 9.25624 381.273 9.04024C381.689 8.82424 382.037 8.51624 382.317 8.11624C382.605 7.71624 382.797 7.25224 382.893 6.72424ZM387.955 10.0962C387.411 10.0962 386.931 9.98824 386.515 9.77224C386.099 9.54824 385.775 9.23624 385.543 8.83624C385.319 8.42824 385.207 7.95224 385.207 7.40824C385.207 6.67224 385.375 5.99624 385.711 5.38024C386.047 4.75624 386.515 4.26424 387.115 3.90424C387.715 3.53624 388.383 3.35224 389.119 3.35224C389.663 3.35224 390.143 3.46424 390.559 3.68824C390.975 3.90424 391.299 4.21624 391.531 4.62424C391.763 5.02424 391.879 5.49624 391.879 6.04024C391.879 6.78424 391.707 7.46424 391.363 8.08024C391.019 8.69624 390.547 9.18824 389.947 9.55624C389.355 9.91624 388.691 10.0962 387.955 10.0962ZM388.051 9.38824C388.619 9.38824 389.127 9.23624 389.575 8.93224C390.031 8.62824 390.383 8.22424 390.631 7.72024C390.887 7.21624 391.015 6.67224 391.015 6.08824C391.015 5.43224 390.823 4.93224 390.439 4.58824C390.063 4.24424 389.583 4.07224 388.999 4.07224C388.431 4.07224 387.923 4.22424 387.475 4.52824C387.035 4.83224 386.691 5.23624 386.443 5.74024C386.195 6.24424 386.071 6.78824 386.071 7.37224C386.071 8.02024 386.259 8.52024 386.635 8.87224C387.011 9.21624 387.483 9.38824 388.051 9.38824ZM398.053 4.88824C398.325 4.44824 398.713 4.08424 399.217 3.79624C399.729 3.50024 400.293 3.35224 400.909 3.35224C401.701 3.35224 402.333 3.58824 402.805 4.06024C403.285 4.52424 403.525 5.16024 403.525 5.96824C403.525 6.20024 403.501 6.44824 403.453 6.71224C403.333 7.38424 403.093 7.97624 402.733 8.48824C402.373 9.00024 401.929 9.39624 401.401 9.67624C400.881 9.95624 400.321 10.0962 399.721 10.0962C399.105 10.0962 398.597 9.95224 398.197 9.66424C397.797 9.36824 397.529 9.00024 397.393 8.56024L396.601 13.0962H395.761L397.465 3.44824H398.305L398.053 4.88824ZM402.601 6.71224C402.641 6.47224 402.661 6.26824 402.661 6.10024C402.661 5.46824 402.473 4.97624 402.097 4.62424C401.729 4.26424 401.241 4.08424 400.633 4.08424C400.185 4.08424 399.757 4.19224 399.349 4.40824C398.941 4.62424 398.593 4.93224 398.305 5.33224C398.017 5.73224 397.825 6.19624 397.729 6.72424C397.689 6.94824 397.669 7.14824 397.669 7.32424C397.669 7.94824 397.857 8.44424 398.233 8.81224C398.609 9.18024 399.097 9.36424 399.697 9.36424C400.161 9.36424 400.593 9.26024 400.993 9.05224C401.401 8.83624 401.745 8.52824 402.025 8.12824C402.313 7.72024 402.505 7.24824 402.601 6.71224ZM407.291 10.0962C406.747 10.0962 406.267 9.98824 405.851 9.77224C405.435 9.54824 405.111 9.23624 404.879 8.83624C404.655 8.42824 404.543 7.95224 404.543 7.40824C404.543 6.67224 404.711 5.99624 405.047 5.38024C405.383 4.75624 405.851 4.26424 406.451 3.90424C407.051 3.53624 407.719 3.35224 408.455 3.35224C408.999 3.35224 409.479 3.46424 409.895 3.68824C410.311 3.90424 410.635 4.21624 410.867 4.62424C411.099 5.02424 411.215 5.49624 411.215 6.04024C411.215 6.78424 411.043 7.46424 410.699 8.08024C410.355 8.69624 409.883 9.18824 409.283 9.55624C408.691 9.91624 408.027 10.0962 407.291 10.0962ZM407.387 9.38824C407.955 9.38824 408.463 9.23624 408.911 8.93224C409.367 8.62824 409.719 8.22424 409.967 7.72024C410.223 7.21624 410.351 6.67224 410.351 6.08824C410.351 5.43224 410.159 4.93224 409.775 4.58824C409.399 4.24424 408.919 4.07224 408.335 4.07224C407.767 4.07224 407.259 4.22424 406.811 4.52824C406.371 4.83224 406.027 5.23624 405.779 5.74024C405.531 6.24424 405.407 6.78824 405.407 7.37224C405.407 8.02024 405.595 8.52024 405.971 8.87224C406.347 9.21624 406.819 9.38824 407.387 9.38824ZM413.874 4.75624C414.138 4.30024 414.482 3.94824 414.906 3.70024C415.33 3.45224 415.822 3.32824 416.382 3.32824L416.226 4.20424H415.986C415.41 4.20424 414.914 4.35224 414.498 4.64824C414.082 4.94424 413.794 5.43224 413.634 6.11224L412.95 10.0002H412.11L413.262 3.44824H414.102L413.874 4.75624ZM426.021 1.61224L425.901 2.28424H422.193L421.641 5.45224H424.761L424.641 6.11224H421.521L420.837 10.0002H419.997L421.473 1.61224H426.021ZM429.923 3.35224C430.475 3.35224 430.947 3.46024 431.339 3.67624C431.731 3.88424 432.027 4.17224 432.227 4.54024C432.435 4.90824 432.539 5.32824 432.539 5.80024C432.539 6.01624 432.523 6.20824 432.491 6.37624C432.443 6.61624 432.395 6.83224 432.347 7.02424H426.911C426.887 7.17624 426.875 7.32024 426.875 7.45624C426.875 8.07224 427.059 8.54824 427.427 8.88424C427.803 9.22024 428.279 9.38824 428.855 9.38824C429.407 9.38824 429.891 9.25624 430.307 8.99224C430.723 8.72824 431.027 8.37224 431.219 7.92424H432.119C431.847 8.56424 431.411 9.08824 430.811 9.49624C430.219 9.89624 429.527 10.0962 428.735 10.0962C427.919 10.0962 427.263 9.86424 426.767 9.40024C426.279 8.92824 426.035 8.28824 426.035 7.48024C426.035 7.24024 426.059 6.98824 426.107 6.72424C426.227 6.04424 426.467 5.44824 426.827 4.93624C427.195 4.42424 427.647 4.03224 428.183 3.76024C428.719 3.48824 429.299 3.35224 429.923 3.35224ZM431.627 6.40024C431.667 6.17624 431.687 5.98824 431.687 5.83624C431.687 5.26824 431.507 4.83224 431.147 4.52824C430.787 4.22424 430.327 4.07224 429.767 4.07224C429.359 4.07224 428.967 4.16024 428.591 4.33624C428.215 4.51224 427.887 4.77624 427.607 5.12824C427.327 5.48024 427.135 5.90424 427.031 6.40024H431.627ZM435.144 4.75624C435.408 4.30024 435.752 3.94824 436.176 3.70024C436.6 3.45224 437.092 3.32824 437.652 3.32824L437.496 4.20424H437.256C436.68 4.20424 436.184 4.35224 435.768 4.64824C435.352 4.94424 435.064 5.43224 434.904 6.11224L434.22 10.0002H433.38L434.532 3.44824H435.372L435.144 4.75624ZM441.987 3.32824C442.659 3.32824 443.195 3.51224 443.595 3.88024C444.003 4.24024 444.207 4.76824 444.207 5.46424C444.207 5.72024 444.187 5.95224 444.147 6.16024L443.463 10.0002H442.635L443.295 6.25624C443.327 6.07224 443.343 5.87624 443.343 5.66824C443.343 5.14024 443.199 4.74024 442.911 4.46824C442.623 4.19624 442.219 4.06024 441.699 4.06024C441.067 4.06024 440.527 4.26024 440.079 4.66024C439.631 5.06024 439.339 5.64824 439.203 6.42424V6.38824L438.567 10.0002H437.727L438.879 3.44824H439.719L439.515 4.57624C439.795 4.17624 440.151 3.86824 440.583 3.65224C441.015 3.43624 441.483 3.32824 441.987 3.32824ZM445.513 6.71224C445.633 6.04024 445.873 5.45224 446.233 4.94824C446.593 4.43624 447.033 4.04424 447.553 3.77224C448.081 3.49224 448.645 3.35224 449.245 3.35224C449.869 3.35224 450.381 3.49624 450.781 3.78424C451.181 4.07224 451.441 4.44024 451.561 4.88824L451.813 3.44824H452.653L451.501 10.0002H450.661L450.913 8.54824C450.641 8.99624 450.249 9.36824 449.737 9.66424C449.233 9.95224 448.669 10.0962 448.045 10.0962C447.525 10.0962 447.069 9.98824 446.677 9.77224C446.285 9.55624 445.981 9.25224 445.765 8.86024C445.549 8.46024 445.441 7.99224 445.441 7.45624C445.441 7.22424 445.465 6.97624 445.513 6.71224ZM451.237 6.72424C451.277 6.50024 451.297 6.30024 451.297 6.12424C451.297 5.50024 451.109 5.00424 450.733 4.63624C450.357 4.26824 449.869 4.08424 449.269 4.08424C448.805 4.08424 448.369 4.18824 447.961 4.39624C447.561 4.60424 447.221 4.90824 446.941 5.30824C446.661 5.70024 446.473 6.16824 446.377 6.71224C446.337 6.95224 446.317 7.15624 446.317 7.32424C446.317 7.95624 446.501 8.45624 446.869 8.82424C447.245 9.18424 447.733 9.36424 448.333 9.36424C448.781 9.36424 449.209 9.25624 449.617 9.04024C450.033 8.82424 450.381 8.51624 450.661 8.11624C450.949 7.71624 451.141 7.25224 451.237 6.72424ZM457.679 3.32824C458.351 3.32824 458.887 3.51224 459.287 3.88024C459.695 4.24024 459.899 4.76824 459.899 5.46424C459.899 5.72024 459.879 5.95224 459.839 6.16024L459.155 10.0002H458.327L458.987 6.25624C459.019 6.07224 459.035 5.87624 459.035 5.66824C459.035 5.14024 458.891 4.74024 458.603 4.46824C458.315 4.19624 457.911 4.06024 457.391 4.06024C456.759 4.06024 456.219 4.26024 455.771 4.66024C455.323 5.06024 455.031 5.64824 454.895 6.42424V6.38824L454.259 10.0002H453.419L454.571 3.44824H455.411L455.207 4.57624C455.487 4.17624 455.843 3.86824 456.275 3.65224C456.707 3.43624 457.175 3.32824 457.679 3.32824ZM461.204 6.71224C461.324 6.04024 461.564 5.45224 461.924 4.94824C462.284 4.43624 462.728 4.04424 463.256 3.77224C463.784 3.49224 464.348 3.35224 464.948 3.35224C465.524 3.35224 466.016 3.49224 466.424 3.77224C466.84 4.05224 467.12 4.41624 467.264 4.86424L467.924 1.12024H468.764L467.192 10.0002H466.352L466.616 8.53624C466.328 8.99224 465.932 9.36824 465.428 9.66424C464.924 9.95224 464.364 10.0962 463.748 10.0962C462.956 10.0962 462.32 9.86024 461.84 9.38824C461.368 8.90824 461.132 8.26424 461.132 7.45624C461.132 7.22424 461.156 6.97624 461.204 6.71224ZM466.928 6.72424C466.968 6.50024 466.988 6.30024 466.988 6.12424C466.988 5.50024 466.8 5.00424 466.424 4.63624C466.048 4.26824 465.56 4.08424 464.96 4.08424C464.496 4.08424 464.06 4.18824 463.652 4.39624C463.252 4.60424 462.912 4.90824 462.632 5.30824C462.352 5.70024 462.164 6.16824 462.068 6.71224C462.028 6.95224 462.008 7.15624 462.008 7.32424C462.008 7.95624 462.192 8.45624 462.56 8.82424C462.936 9.18424 463.424 9.36424 464.024 9.36424C464.472 9.36424 464.9 9.25624 465.308 9.04024C465.724 8.82424 466.072 8.51624 466.352 8.11624C466.64 7.71624 466.832 7.25224 466.928 6.72424ZM471.99 10.0962C471.446 10.0962 470.966 9.98824 470.55 9.77224C470.134 9.54824 469.81 9.23624 469.578 8.83624C469.354 8.42824 469.242 7.95224 469.242 7.40824C469.242 6.67224 469.41 5.99624 469.746 5.38024C470.082 4.75624 470.55 4.26424 471.15 3.90424C471.75 3.53624 472.418 3.35224 473.154 3.35224C473.698 3.35224 474.178 3.46424 474.594 3.68824C475.01 3.90424 475.334 4.21624 475.566 4.62424C475.798 5.02424 475.914 5.49624 475.914 6.04024C475.914 6.78424 475.742 7.46424 475.398 8.08024C475.054 8.69624 474.582 9.18824 473.982 9.55624C473.39 9.91624 472.726 10.0962 471.99 10.0962ZM472.086 9.38824C472.654 9.38824 473.162 9.23624 473.61 8.93224C474.066 8.62824 474.418 8.22424 474.666 7.72024C474.922 7.21624 475.05 6.67224 475.05 6.08824C475.05 5.43224 474.858 4.93224 474.474 4.58824C474.098 4.24424 473.618 4.07224 473.034 4.07224C472.466 4.07224 471.958 4.22424 471.51 4.52824C471.07 4.83224 470.726 5.23624 470.478 5.74024C470.23 6.24424 470.106 6.78824 470.106 7.37224C470.106 8.02024 470.294 8.52024 470.67 8.87224C471.046 9.21624 471.518 9.38824 472.086 9.38824ZM481.308 9.34024H484.32L484.2 10.0002H480.348L481.824 1.61224H482.664L481.308 9.34024ZM489.407 3.35224C489.959 3.35224 490.431 3.46024 490.823 3.67624C491.215 3.88424 491.511 4.17224 491.711 4.54024C491.919 4.90824 492.023 5.32824 492.023 5.80024C492.023 6.01624 492.007 6.20824 491.975 6.37624C491.927 6.61624 491.879 6.83224 491.831 7.02424H486.395C486.371 7.17624 486.359 7.32024 486.359 7.45624C486.359 8.07224 486.543 8.54824 486.911 8.88424C487.287 9.22024 487.763 9.38824 488.339 9.38824C488.891 9.38824 489.375 9.25624 489.791 8.99224C490.207 8.72824 490.511 8.37224 490.703 7.92424H491.603C491.331 8.56424 490.895 9.08824 490.295 9.49624C489.703 9.89624 489.011 10.0962 488.219 10.0962C487.403 10.0962 486.747 9.86424 486.251 9.40024C485.763 8.92824 485.519 8.28824 485.519 7.48024C485.519 7.24024 485.543 6.98824 485.591 6.72424C485.711 6.04424 485.951 5.44824 486.311 4.93624C486.679 4.42424 487.131 4.03224 487.667 3.76024C488.203 3.48824 488.783 3.35224 489.407 3.35224ZM491.111 6.40024C491.151 6.17624 491.171 5.98824 491.171 5.83624C491.171 5.26824 490.991 4.83224 490.631 4.52824C490.271 4.22424 489.811 4.07224 489.251 4.07224C488.843 4.07224 488.451 4.16024 488.075 4.33624C487.699 4.51224 487.371 4.77624 487.091 5.12824C486.811 5.48024 486.619 5.90424 486.515 6.40024H491.111ZM495.744 10.0962C495.2 10.0962 494.72 9.98824 494.304 9.77224C493.888 9.54824 493.564 9.23624 493.332 8.83624C493.108 8.42824 492.996 7.95224 492.996 7.40824C492.996 6.67224 493.164 5.99624 493.5 5.38024C493.836 4.75624 494.304 4.26424 494.904 3.90424C495.504 3.53624 496.172 3.35224 496.908 3.35224C497.452 3.35224 497.932 3.46424 498.348 3.68824C498.764 3.90424 499.088 4.21624 499.32 4.62424C499.552 5.02424 499.668 5.49624 499.668 6.04024C499.668 6.78424 499.496 7.46424 499.152 8.08024C498.808 8.69624 498.336 9.18824 497.736 9.55624C497.144 9.91624 496.48 10.0962 495.744 10.0962ZM495.84 9.38824C496.408 9.38824 496.916 9.23624 497.364 8.93224C497.82 8.62824 498.172 8.22424 498.42 7.72024C498.676 7.21624 498.804 6.67224 498.804 6.08824C498.804 5.43224 498.612 4.93224 498.228 4.58824C497.852 4.24424 497.372 4.07224 496.788 4.07224C496.22 4.07224 495.712 4.22424 495.264 4.52824C494.824 4.83224 494.48 5.23624 494.232 5.74024C493.984 6.24424 493.86 6.78824 493.86 7.37224C493.86 8.02024 494.048 8.52024 494.424 8.87224C494.8 9.21624 495.272 9.38824 495.84 9.38824ZM504.823 3.32824C505.495 3.32824 506.031 3.51224 506.431 3.88024C506.839 4.24024 507.043 4.76824 507.043 5.46424C507.043 5.72024 507.023 5.95224 506.983 6.16024L506.299 10.0002H505.471L506.131 6.25624C506.163 6.07224 506.179 5.87624 506.179 5.66824C506.179 5.14024 506.035 4.74024 505.747 4.46824C505.459 4.19624 505.055 4.06024 504.535 4.06024C503.903 4.06024 503.363 4.26024 502.915 4.66024C502.467 5.06024 502.175 5.64824 502.039 6.42424V6.38824L501.403 10.0002H500.563L501.715 3.44824H502.555L502.351 4.57624C502.631 4.17624 502.987 3.86824 503.419 3.65224C503.851 3.43624 504.319 3.32824 504.823 3.32824ZM509.957 2.21224C509.805 2.21224 509.681 2.16824 509.585 2.08024C509.489 1.98424 509.441 1.86024 509.441 1.70824C509.441 1.50024 509.513 1.32824 509.657 1.19224C509.801 1.04824 509.973 0.976244 510.173 0.976244C510.325 0.976244 510.445 1.02024 510.533 1.10824C510.629 1.19624 510.677 1.31224 510.677 1.45624C510.677 1.66424 510.605 1.84424 510.461 1.99624C510.317 2.14024 510.149 2.21224 509.957 2.21224ZM510.149 3.44824L508.997 10.0002H508.157L509.309 3.44824H510.149ZM511.091 6.71224C511.211 6.04024 511.451 5.45224 511.811 4.94824C512.171 4.43624 512.615 4.04424 513.143 3.77224C513.671 3.49224 514.235 3.35224 514.835 3.35224C515.411 3.35224 515.903 3.49224 516.311 3.77224C516.727 4.05224 517.007 4.41624 517.151 4.86424L517.811 1.12024H518.651L517.079 10.0002H516.239L516.503 8.53624C516.215 8.99224 515.819 9.36824 515.315 9.66424C514.811 9.95224 514.251 10.0962 513.635 10.0962C512.843 10.0962 512.207 9.86024 511.727 9.38824C511.255 8.90824 511.019 8.26424 511.019 7.45624C511.019 7.22424 511.043 6.97624 511.091 6.71224ZM516.815 6.72424C516.855 6.50024 516.875 6.30024 516.875 6.12424C516.875 5.50024 516.687 5.00424 516.311 4.63624C515.935 4.26824 515.447 4.08424 514.847 4.08424C514.383 4.08424 513.947 4.18824 513.539 4.39624C513.139 4.60424 512.799 4.90824 512.519 5.30824C512.239 5.70024 512.051 6.16824 511.955 6.71224C511.915 6.95224 511.895 7.15624 511.895 7.32424C511.895 7.95624 512.079 8.45624 512.447 8.82424C512.823 9.18424 513.311 9.36424 513.911 9.36424C514.359 9.36424 514.787 9.25624 515.195 9.04024C515.611 8.82424 515.959 8.51624 516.239 8.11624C516.527 7.71624 516.719 7.25224 516.815 6.72424Z" fill="white"/>
</svg>
